<svg width="512" height="512" viewBox="0 0 512 512" fill="none" xmlns="http://www.w3.org/2000/svg">
<path d="M288.574 2.10947C148.371 -15.8745 20.0938 83.1974 2.10984 223.421C-15.8742 363.624 83.1765 491.88 223.401 509.885C363.625 527.869 491.923 428.797 509.865 288.573C527.87 148.371 428.819 20.1148 288.574 2.10947ZM341.289 161.789C336.538 161.852 331.999 163.765 328.638 167.123L233.641 262.12L227.091 255.571L213.374 241.853C307.006 148.499 323.881 147.603 341.289 161.789ZM237.545 265.491L332.265 170.771C333.506 169.469 335 168.434 336.655 167.729C338.311 167.024 340.092 166.664 341.891 166.672C343.69 166.679 345.469 167.053 347.118 167.772C348.768 168.49 350.253 169.537 351.484 170.849C352.715 172.162 353.665 173.711 354.277 175.403C354.888 177.095 355.148 178.894 355.04 180.69C354.932 182.486 354.46 184.241 353.65 185.847C352.841 187.454 351.713 188.879 350.334 190.035L250.089 278.035L237.545 265.491ZM244.585 280.296L221.118 285.373C220.838 285.437 220.544 285.404 220.285 285.28C220.026 285.156 219.816 284.948 219.689 284.691C219.546 284.444 219.489 284.158 219.528 283.876C219.567 283.593 219.698 283.332 219.902 283.133L233.662 269.373L244.585 280.296ZM184.787 270.504L209.79 245.501L228.542 264.232L186.323 273.32C185.971 273.411 185.599 273.378 185.268 273.227C184.938 273.075 184.67 272.814 184.51 272.488C184.311 272.179 184.23 271.809 184.281 271.445C184.331 271.081 184.511 270.747 184.787 270.504ZM107.006 399.741C106.793 399.723 106.585 399.662 106.396 399.563C106.206 399.463 106.038 399.327 105.901 399.163C105.764 398.998 105.661 398.808 105.598 398.603C105.535 398.399 105.513 398.184 105.534 397.971C105.574 397.6 105.74 397.254 106.003 396.989H106.046L126.227 376.808L152.297 402.877L107.006 399.741ZM158.739 372.947C157.772 373.446 157 374.256 156.548 375.246C156.095 376.236 155.988 377.35 156.243 378.408L160.574 396.861C160.714 397.43 160.663 398.029 160.428 398.565C160.194 399.102 159.79 399.547 159.278 399.831C158.765 400.115 158.174 400.222 157.595 400.137C157.016 400.051 156.481 399.777 156.073 399.357H156.009L136.083 379.432L129.811 373.139L210.067 292.968L248.894 284.584L267.539 303.229C240.766 326.739 204.158 350.184 158.739 372.947ZM271.358 299.816H271.315L253.417 281.917L353.662 193.917C354.589 193.094 355.439 192.187 356.201 191.208C353.043 219.901 312.915 260.435 271.358 299.816ZM349.374 162.003L349.31 161.96C342.257 154.873 338.206 145.341 337.999 135.344C337.792 125.348 341.446 115.656 348.2 108.284C354.954 100.911 364.29 96.4252 374.267 95.7581C384.243 95.091 394.093 98.294 401.769 104.701L367.422 139.112C367.184 139.348 366.995 139.629 366.866 139.938C366.737 140.248 366.671 140.58 366.671 140.915C366.671 141.25 366.737 141.582 366.866 141.891C366.995 142.201 367.184 142.481 367.422 142.717L394.025 169.32C386.753 172.93 378.532 174.165 370.521 172.852C362.51 171.539 355.113 167.744 349.374 162.003ZM404.371 162.003C402.607 163.745 400.67 165.303 398.59 166.653H398.569L372.819 140.904L405.523 108.2C419.625 123.56 419.113 147.283 404.371 162.003ZM402.238 129.064C401.725 129.436 401.341 129.958 401.138 130.558C400.935 131.159 400.925 131.807 401.107 132.413C401.867 133.952 402.164 135.677 401.964 137.381C401.763 139.085 401.073 140.694 399.977 142.013C399.732 142.321 399.551 142.674 399.443 143.053C399.336 143.431 399.304 143.826 399.349 144.217C399.395 144.607 399.517 144.985 399.709 145.328C399.901 145.671 400.158 145.973 400.467 146.216C400.98 146.618 401.608 146.842 402.259 146.856C402.691 146.852 403.116 146.755 403.507 146.571C403.897 146.387 404.243 146.12 404.521 145.789C406.353 143.588 407.504 140.9 407.834 138.055C408.164 135.21 407.657 132.33 406.377 129.768C406.153 129.448 405.868 129.175 405.538 128.965C405.208 128.756 404.84 128.614 404.455 128.549C404.069 128.483 403.675 128.495 403.294 128.584C402.914 128.672 402.555 128.835 402.238 129.064Z" fill="url(#paint0_linear)"/>
<defs>
<linearGradient id="paint0_linear" x1="376" y1="68" x2="116" y2="436" gradientUnits="userSpaceOnUse">
<stop stop-color="#CA3FBD" stop-opacity="0.51"/>
<stop offset="0.649837" stop-color="#FD7ADA"/>
<stop offset="1" stop-color="#FDBA9B"/>
</linearGradient>
</defs>
</svg>
