<svg width="512" height="512" viewBox="0 0 512 512" fill="none" xmlns="http://www.w3.org/2000/svg">
<g clip-path="url(#clip0)">
<path d="M493.867 55.4713L388.48 4.49644C382.524 1.6133 375.824 0.66305 369.307 1.77729C362.79 2.89153 356.779 6.01512 352.107 10.7155L150.293 195.786L62.4 128.706C58.4346 125.683 53.5417 124.15 48.5696 124.373C43.5976 124.596 38.8601 126.562 35.1787 129.928L6.97601 155.705C4.77826 157.714 3.0219 160.161 1.81939 162.891C0.616869 165.621 -0.00531115 168.574 -0.00731934 171.559C-0.00932753 174.545 0.60888 177.498 1.80772 180.23C3.00657 182.961 4.75963 185.411 6.95468 187.423L83.1787 257.333L6.95468 327.244C4.75963 329.255 3.00657 331.705 1.80772 334.437C0.60888 337.169 -0.00932753 340.122 -0.00731934 343.107C-0.00531115 346.093 0.616869 349.045 1.81939 351.775C3.0219 354.505 4.77826 356.953 6.97601 358.961L35.2 384.717C38.8814 388.084 43.6189 390.049 48.591 390.272C53.563 390.496 58.456 388.963 62.4213 385.939L150.315 318.859L352.128 503.93C356.796 508.631 362.803 511.756 369.317 512.87C375.831 513.984 382.528 513.033 388.48 510.149L493.909 459.174C499.333 456.542 503.909 452.425 507.109 447.296C510.309 442.167 512.004 436.235 512 430.18V84.465C512.001 78.406 510.299 72.4701 507.091 67.3406C503.883 62.2112 499.299 58.0968 493.867 55.4713ZM384.085 374.166L230.955 257.333L384.085 140.501V374.166Z" fill="url(#paint0_linear)"/>
</g>
<defs>
<linearGradient id="paint0_linear" x1="440" y1="72" x2="116" y2="444" gradientUnits="userSpaceOnUse">
<stop stop-color="#CA3FBD" stop-opacity="0.51"/>
<stop offset="0.526151" stop-color="#FD7ADA"/>
<stop offset="1" stop-color="#FDBA9B"/>
</linearGradient>
<clipPath id="clip0">
<rect width="512" height="512" fill="white"/>
</clipPath>
</defs>
</svg>
