<svg width="64" height="64" viewBox="0 0 64 64" fill="none" xmlns="http://www.w3.org/2000/svg">
<path d="M61.7333 6.93391L48.56 0.562054C47.8155 0.20166 46.978 0.0828793 46.1634 0.222159C45.3488 0.361439 44.5974 0.751888 44.0133 1.33944L18.7867 24.4733L7.8 16.0883C7.30433 15.7103 6.69271 15.5187 6.0712 15.5466C5.4497 15.5745 4.85751 15.8202 4.39734 16.2411L0.872001 19.4632C0.597283 19.7142 0.377738 20.0201 0.227423 20.3614C0.0771086 20.7027 -0.000663894 21.0717 -0.000914918 21.4449C-0.00116594 21.8181 0.07611 22.1873 0.225966 22.5287C0.375821 22.8702 0.594954 23.1764 0.869335 23.4278L10.3973 32.1667L0.869335 40.9055C0.594954 41.1569 0.375821 41.4632 0.225966 41.8046C0.07611 42.1461 -0.00116594 42.5152 -0.000914918 42.8884C-0.000663894 43.2616 0.0771086 43.6307 0.227423 43.9719C0.377738 44.3132 0.597283 44.6191 0.872001 44.8702L4.4 48.0896C4.86018 48.5105 5.45237 48.7561 6.07387 48.784C6.69537 48.812 7.307 48.6203 7.80267 48.2424L18.7893 39.8574L44.016 62.9912C44.5995 63.5789 45.3504 63.9695 46.1646 64.1088C46.9788 64.2481 47.816 64.1292 48.56 63.7686L61.7387 57.3967C62.4167 57.0678 62.9886 56.5532 63.3886 55.912C63.7886 55.2709 64.0006 54.5293 64 53.7725V10.5581C64.0001 9.80075 63.7874 9.05876 63.3864 8.41758C62.9853 7.7764 62.4123 7.2621 61.7333 6.93391ZM48.0107 46.7707L28.8693 32.1667L48.0107 17.5626V46.7707Z" fill="url(#paint0_linear)"/>
<defs>
<linearGradient id="paint0_linear" x1="55" y1="9" x2="14.5" y2="55.5" gradientUnits="userSpaceOnUse">
<stop stop-color="#CA3FBD" stop-opacity="0.51"/>
<stop offset="0.526151" stop-color="#FD7ADA"/>
<stop offset="1" stop-color="#FDBA9B"/>
</linearGradient>
</defs>
</svg>
