<svg width="512" height="512" viewBox="0 0 512 512" fill="none" xmlns="http://www.w3.org/2000/svg">
<circle cx="256.5" cy="268.5" r="137.5" fill="#243FC7"/>
<path d="M188.245 155.456C188.416 155.456 188.33 155.456 188.245 155.456V155.456ZM128.512 125.589C128.64 125.589 128.576 125.589 128.512 125.589V125.589ZM485.93 171.691C475.157 145.771 453.29 117.76 436.16 108.907C450.112 136.277 458.197 163.733 461.269 184.213L461.312 184.64C433.28 114.709 385.706 86.5067 346.837 25.1307C344.896 21.9947 342.912 18.9013 341.013 15.616C340.023 13.9456 339.098 12.2376 338.24 10.496C336.64 7.37824 335.409 4.08499 334.57 0.682667C334.571 0.523456 334.513 0.369664 334.406 0.251322C334.3 0.13298 334.153 0.0585859 333.994 0.0426667C333.848 0.000584314 333.693 0.000584314 333.546 0.0426667L333.418 0.064C333.342 0.0885444 333.27 0.12451 333.205 0.170667L333.312 0C278.165 32.32 255.296 88.9173 249.429 124.928C232.383 125.888 215.684 130.14 200.256 137.451C198.848 138.145 197.749 139.336 197.169 140.794C196.59 142.252 196.572 143.874 197.12 145.344C198.336 148.8 202.24 150.464 205.568 148.971C219.031 142.626 233.557 138.842 248.405 137.813L249.834 137.707C263.919 136.913 278.035 138.515 291.584 142.443L293.61 143.083C298.079 144.455 302.466 146.079 306.752 147.947C308.458 148.715 310.165 149.504 311.829 150.336L314.112 151.509C316.782 152.914 319.401 154.416 321.962 156.011C339.936 167.129 354.85 182.557 365.354 200.896C352.128 191.573 328.384 182.379 305.557 186.368C394.794 230.955 370.837 384.597 247.168 378.795C236.158 378.344 225.277 376.244 214.89 372.565C210.959 371.171 207.125 369.518 203.413 367.616C173.12 351.936 148.096 322.368 144.96 286.421C144.96 286.421 156.416 243.755 226.986 243.755C234.602 243.755 256.426 222.464 256.81 216.299C256.704 214.272 213.525 197.099 196.714 180.523C187.712 171.648 183.445 167.381 179.648 164.16C177.597 162.431 175.453 160.814 173.226 159.317C167.576 139.533 167.341 118.595 172.544 98.688C147.05 110.293 127.232 128.619 112.81 144.832H112.682C102.869 132.373 103.552 91.2853 104.106 82.688C103.978 82.1547 96.789 86.4427 95.8077 87.0827C87.1464 93.2693 79.0184 100.224 71.573 107.861C63.1037 116.459 55.3597 125.76 48.4264 135.659C32.4695 158.244 21.144 183.766 15.1037 210.752C15.0397 211.029 12.757 221.141 11.0504 233.643C10.773 235.563 10.4957 237.504 10.261 239.445C9.56663 244.165 9.07551 248.913 8.78904 253.675L8.74637 254.4L8.25571 262.656L8.23438 263.936C8.23438 400.96 119.317 512 256.341 512C379.05 512 480.917 422.912 500.885 305.899C501.312 302.72 501.632 299.541 501.994 296.341C506.944 253.803 501.461 209.088 485.93 171.669V171.691Z" fill="url(#paint0_linear)"/>
<defs>
<linearGradient id="paint0_linear" x1="370.5" y1="96" x2="152.5" y2="463.5" gradientUnits="userSpaceOnUse">
<stop stop-color="#CA3FBD" stop-opacity="0.57"/>
<stop offset="0.722373" stop-color="#FD7ADA"/>
<stop offset="1" stop-color="#FDBA9B"/>
</linearGradient>
</defs>
</svg>
