<svg width="512" height="512" viewBox="0 0 512 512" fill="none" xmlns="http://www.w3.org/2000/svg">
<path d="M431.403 0C461.398 0 485.59 24.256 487.019 52.8V512L429.91 463.509L398.549 434.965L364.331 405.141L378.624 452.181H79.1469C49.2375 452.181 24.9602 429.461 24.9602 399.36V52.9067C24.9602 24.3627 49.2802 0.064 79.2535 0.064H431.254L431.403 0ZM300.886 121.237H300.246L295.936 125.504C340.16 138.304 361.558 158.293 361.558 158.293C333.056 144.043 307.371 136.917 281.686 134.037C263.126 131.157 244.566 132.672 228.886 134.037H224.619C214.592 134.037 193.259 138.304 164.672 149.717C154.71 154.048 148.992 156.885 148.992 156.885C148.992 156.885 170.368 135.509 217.472 124.096L214.592 121.216C214.592 121.216 178.923 119.851 140.416 148.309C140.416 148.309 101.91 215.381 101.91 298.069C101.91 298.069 123.243 335.189 181.76 336.597C181.76 336.597 190.294 325.227 198.934 315.221C166.08 305.237 153.28 285.269 153.28 285.269C153.28 285.269 156.139 286.677 160.427 289.536H161.707C162.347 289.536 162.646 289.856 162.987 290.176V290.304C163.328 290.645 163.627 290.944 164.267 290.944C171.307 293.845 178.347 296.704 184.107 299.477C194.048 303.787 206.827 308.075 222.507 310.912C242.347 313.792 265.088 315.179 290.987 310.912C303.787 308.032 316.587 305.216 329.387 299.499C337.707 295.232 347.947 290.965 359.19 283.776C359.19 283.776 346.389 303.744 312.15 313.728C319.19 323.669 329.11 335.061 329.11 335.061C387.648 333.781 410.39 296.661 411.67 298.24C411.67 215.68 372.95 148.48 372.95 148.48C338.07 122.581 305.43 121.6 299.67 121.6L300.864 121.173L300.886 121.237ZM304.47 215.381C319.467 215.381 331.563 228.181 331.563 243.861C331.563 259.648 319.403 272.448 304.47 272.448C289.536 272.448 277.376 259.648 277.376 243.989C277.419 228.203 289.6 215.445 304.47 215.445V215.381ZM207.552 215.381C222.486 215.381 234.56 228.181 234.56 243.861C234.56 259.648 222.4 272.448 207.467 272.448C192.534 272.448 180.374 259.648 180.374 243.989C180.374 228.203 192.534 215.445 207.467 215.445L207.552 215.381Z" fill="url(#paint0_linear)"/>
<defs>
<linearGradient id="paint0_linear" x1="436" y1="44" x2="80" y2="428" gradientUnits="userSpaceOnUse">
<stop stop-color="#CA3FBD" stop-opacity="0.51"/>
<stop offset="0.60041" stop-color="#FD7ADA"/>
<stop offset="1" stop-color="#FDBA9B"/>
</linearGradient>
</defs>
</svg>
